<svg id="svg" version="1.1" xmlns="http://www.w3.org/2000/svg" xmlns:xlink="http://www.w3.org/1999/xlink" width="400" height="163.5" viewBox="0, 0, 400,163.5"><g id="svgg"><path id="path0" d="M10.125 4.345 C 10.606 4.470,11.394 4.470,11.875 4.345 C 12.356 4.219,11.963 4.116,11.000 4.116 C 10.037 4.116,9.644 4.219,10.125 4.345 M12.628 4.899 C 9.404 5.052,3.500 9.214,3.500 11.333 C 3.500 11.755,3.258 11.909,2.923 11.702 C 2.582 11.492,2.481 11.564,2.675 11.878 C 2.856 12.171,3.012 19.972,3.021 29.215 C 3.040 47.252,3.060 47.475,4.678 47.550 C 5.724 47.598,5.723 47.607,4.620 47.925 C 3.646 48.205,21.652 48.318,29.406 48.081 L 32.061 48.000 37.470 42.625 C 40.445 39.669,43.131 36.759,43.439 36.158 C 44.304 34.473,44.160 26.209,43.241 24.807 C 42.544 23.743,43.287 20.447,44.049 21.218 C 44.160 21.330,44.138 19.133,44.000 16.336 C 43.757 11.395,42.741 8.000,41.505 8.000 C 41.246 8.000,40.284 7.341,39.367 6.536 L 37.700 5.072 26.725 4.911 C 20.689 4.822,14.345 4.817,12.628 4.899 M98.858 4.818 C 98.367 4.962,97.378 5.625,96.660 6.290 C 95.941 6.956,95.091 7.500,94.769 7.500 C 93.972 7.500,86.903 13.876,86.126 15.296 C 85.675 16.120,85.467 20.611,85.376 31.508 C 85.223 49.765,84.489 48.232,93.189 47.822 L 99.128 47.543 102.314 44.398 L 105.500 41.254 105.500 38.156 C 105.500 35.135,106.192 33.615,106.821 35.254 C 106.993 35.703,106.906 38.586,106.628 41.660 C 106.104 47.439,106.314 48.532,107.936 48.468 C 108.487 48.447,108.386 48.290,107.625 47.984 C 107.004 47.735,106.526 47.133,106.558 46.641 C 106.607 45.883,106.648 45.872,106.834 46.568 C 107.118 47.638,109.115 48.001,114.688 47.996 L 119.250 47.991 122.250 45.425 C 126.545 41.752,126.288 42.928,126.413 26.391 C 126.526 11.556,126.180 8.000,124.620 8.000 C 124.384 8.000,123.452 7.278,122.549 6.396 L 120.909 4.792 110.329 4.674 C 104.511 4.609,99.348 4.674,98.858 4.818 M52.111 7.579 C 50.603 8.898,49.168 9.854,48.922 9.702 C 48.676 9.550,48.505 9.611,48.542 9.838 C 48.694 10.785,47.847 12.464,47.366 12.167 C 47.080 11.990,46.972 12.050,47.127 12.301 C 47.281 12.551,47.552 20.621,47.728 30.235 C 47.904 39.848,48.143 47.809,48.259 47.926 C 48.512 48.179,58.624 48.276,68.019 48.116 L 74.787 48.000 78.269 44.751 L 81.750 41.501 81.924 37.309 C 82.192 30.838,82.167 30.815,74.983 31.111 C 67.233 31.430,67.937 32.765,68.106 18.068 C 68.224 7.713,68.357 5.716,68.852 6.859 C 69.184 7.624,69.462 7.912,69.470 7.500 C 69.508 5.589,68.788 5.382,61.735 5.279 L 54.854 5.179 52.111 7.579 M142.376 6.699 C 138.717 8.779,131.622 14.816,130.667 16.663 C 129.901 18.142,129.743 41.225,130.507 39.989 C 130.710 39.661,131.125 40.095,131.519 41.046 C 131.887 41.934,133.526 43.974,135.162 45.580 L 138.137 48.500 146.944 48.441 C 151.787 48.408,156.370 48.240,157.127 48.066 C 159.319 47.563,169.350 37.413,169.985 35.056 C 171.445 29.632,170.834 25.500,168.570 25.500 C 166.918 25.500,166.993 24.862,168.833 23.271 C 172.971 19.695,171.626 11.897,166.048 7.125 L 163.564 5.000 154.407 5.033 L 145.250 5.065 142.376 6.699 M181.906 5.390 C 180.193 6.121,175.496 10.591,175.200 11.773 C 175.031 12.444,174.749 12.903,174.572 12.793 C 174.395 12.684,174.372 14.879,174.521 17.672 C 174.670 20.465,174.719 28.093,174.628 34.624 C 174.420 49.631,173.842 48.500,181.721 48.500 L 187.907 48.500 191.553 45.016 C 193.559 43.100,195.211 41.582,195.225 41.641 C 195.400 42.396,198.413 47.716,198.891 48.114 C 199.261 48.423,201.466 48.614,204.111 48.566 L 208.689 48.483 211.970 45.562 L 215.250 42.640 215.398 39.015 C 215.541 35.508,215.478 35.283,213.444 32.070 C 208.184 23.758,208.557 24.742,210.178 23.467 C 210.826 22.958,212.345 21.023,213.553 19.168 L 215.750 15.796 215.648 11.138 C 215.517 5.135,215.977 5.500,208.543 5.500 L 202.145 5.500 198.871 8.500 C 194.895 12.143,195.000 12.135,195.000 8.780 C 195.000 7.283,194.820 5.948,194.600 5.812 C 193.905 5.382,182.789 5.013,181.906 5.390 M122.049 8.328 L 123.460 9.750 123.718 23.931 C 124.016 40.370,124.095 40.000,120.262 40.000 C 116.939 40.000,117.140 40.361,116.712 33.604 C 116.278 26.737,116.514 26.951,109.264 26.839 C 102.178 26.730,102.380 26.530,102.641 33.382 C 102.859 39.114,102.754 39.339,99.750 39.519 C 95.622 39.768,96.000 41.271,96.000 24.596 C 96.000 5.189,94.897 6.561,110.332 6.768 L 120.638 6.907 122.049 8.328 M38.509 7.763 C 40.756 8.910,41.611 12.424,41.002 18.011 C 40.351 23.988,40.350 23.342,41.018 29.313 C 41.642 34.896,40.884 37.724,38.408 39.049 C 37.109 39.745,15.563 40.285,14.653 39.645 C 14.177 39.311,13.594 12.505,13.958 7.701 C 14.022 6.859,36.852 6.917,38.509 7.763 M65.333 7.625 C 65.548 7.969,65.654 13.603,65.567 20.145 C 65.378 34.460,64.815 33.353,72.239 33.260 C 79.179 33.173,79.281 33.222,79.141 36.566 C 78.991 40.135,79.258 40.039,68.862 40.260 C 58.730 40.475,58.147 40.331,58.791 37.765 L 59.125 36.434 59.702 37.592 C 60.263 38.720,60.484 38.754,68.148 38.888 C 77.142 39.045,78.141 38.784,77.904 36.342 L 77.750 34.750 71.250 34.500 L 64.750 34.250 64.500 22.000 C 64.232 8.887,64.163 8.500,62.070 8.500 C 59.562 8.500,59.500 8.817,59.500 21.630 C 59.500 29.706,59.333 33.456,58.984 33.240 C 58.645 33.030,58.516 28.602,58.609 20.335 L 58.750 7.750 60.750 7.446 C 64.082 6.939,64.924 6.972,65.333 7.625 M164.235 7.694 C 166.614 9.253,168.060 12.681,167.898 16.378 L 167.750 19.750 165.540 19.908 C 162.159 20.149,161.144 19.718,160.427 17.738 C 159.257 14.501,153.402 13.059,150.383 15.263 C 147.781 17.164,146.558 24.766,148.149 29.152 C 150.142 34.643,158.059 34.782,160.188 29.363 L 160.938 27.453 164.344 27.601 L 167.750 27.750 167.714 31.250 C 167.638 38.788,165.926 39.954,154.352 40.351 L 145.683 40.649 144.083 39.200 C 138.810 34.423,139.017 11.696,144.368 7.949 C 145.888 6.884,162.671 6.669,164.235 7.694 M191.616 8.171 C 192.120 8.962,192.147 9.359,192.202 16.600 C 192.261 24.361,192.563 24.890,195.619 22.569 C 196.791 21.679,198.497 20.480,199.411 19.905 C 201.762 18.424,205.500 12.601,205.500 10.419 C 205.500 8.085,206.252 7.500,209.250 7.500 C 212.586 7.500,213.000 8.006,213.000 12.083 C 213.000 15.998,210.746 20.891,208.010 22.914 C 206.015 24.389,206.002 24.332,209.750 30.574 C 214.531 38.537,214.402 40.393,209.049 40.630 L 206.348 40.750 203.624 36.750 C 202.126 34.550,200.579 32.131,200.187 31.375 C 199.346 29.753,198.011 29.607,196.750 31.000 C 196.252 31.550,195.582 32.000,195.260 32.000 C 194.049 32.000,192.577 34.306,192.230 36.750 C 191.750 40.117,191.341 40.500,188.218 40.500 C 184.731 40.500,184.935 41.413,185.005 26.127 C 185.094 6.894,185.016 7.865,186.500 7.433 C 188.085 6.972,191.133 7.411,191.616 8.171 M11.258 8.014 C 11.433 8.296,11.558 15.777,11.535 24.639 L 11.495 40.750 9.479 42.660 C 8.370 43.711,7.190 44.481,6.856 44.370 C 6.089 44.116,5.507 32.281,5.649 19.824 L 5.750 10.898 7.750 9.206 C 9.832 7.446,10.721 7.144,11.258 8.014 M16.375 8.345 C 14.943 8.719,14.757 10.621,14.800 24.449 C 14.851 40.646,13.555 39.000,26.247 39.000 L 35.804 39.000 37.342 37.375 C 40.598 33.935,41.198 29.256,38.839 25.712 L 37.483 23.674 39.034 20.667 C 41.396 16.087,39.735 10.015,35.701 8.481 C 34.461 8.010,18.099 7.894,16.375 8.345 M56.020 9.375 C 56.032 10.131,56.030 17.613,56.016 26.000 L 55.992 41.250 54.219 42.906 C 50.755 46.143,50.767 46.191,50.617 28.493 C 50.472 11.358,50.558 10.702,53.180 9.023 C 55.308 7.659,55.996 7.745,56.020 9.375 M99.000 9.747 L 97.250 11.552 97.000 19.901 C 96.548 35.005,97.016 38.485,99.500 38.485 C 101.448 38.485,101.744 37.675,102.000 31.645 L 102.250 25.750 108.967 25.657 C 117.798 25.534,117.333 25.173,117.770 32.501 C 118.111 38.201,118.188 38.528,119.268 38.799 C 122.348 39.572,122.437 39.216,122.601 25.370 C 122.810 7.705,123.273 8.327,109.750 8.096 L 100.750 7.942 99.000 9.747 M147.750 8.357 C 143.707 9.330,141.966 13.689,141.702 23.500 C 141.345 36.832,143.315 39.165,154.722 38.913 L 162.117 38.750 164.058 36.561 C 165.126 35.357,166.000 33.936,166.000 33.403 C 166.000 32.870,166.237 31.991,166.528 31.448 C 168.047 28.610,164.111 27.180,162.036 29.817 C 161.466 30.542,161.000 31.437,161.000 31.806 C 161.000 33.592,152.578 35.004,149.079 33.805 C 145.642 32.627,145.294 17.676,148.620 14.125 C 151.377 11.182,161.500 13.215,161.500 16.711 C 161.500 18.597,165.257 19.748,166.505 18.244 C 167.516 17.026,165.761 12.172,163.480 9.875 L 161.618 8.000 155.184 8.058 C 151.645 8.090,148.300 8.224,147.750 8.357 M182.622 8.625 C 182.747 8.969,182.768 16.443,182.668 25.234 L 182.485 41.218 180.894 42.859 C 177.872 45.977,177.690 45.603,177.290 35.466 C 176.841 24.102,177.332 12.692,178.338 11.092 C 180.040 8.385,182.100 7.199,182.622 8.625 M186.991 9.261 C 186.459 9.902,186.261 13.177,186.105 23.943 C 185.883 39.319,185.863 39.219,189.092 38.909 L 190.750 38.750 190.898 35.645 C 191.044 32.592,191.084 32.514,193.241 31.059 C 196.435 28.903,198.815 27.874,199.848 28.202 C 200.690 28.469,205.500 35.843,205.500 36.867 C 205.500 38.046,207.935 39.567,209.570 39.411 C 212.014 39.177,212.055 37.588,209.710 34.066 C 206.008 28.508,205.535 27.723,204.750 25.835 L 203.953 23.921 206.379 21.571 C 210.983 17.110,213.106 9.463,209.845 9.089 C 208.150 8.894,207.000 9.742,207.000 11.186 C 207.000 15.106,200.648 22.521,194.622 25.636 C 190.986 27.516,191.001 27.547,190.992 18.345 C 190.988 13.893,190.817 9.987,190.612 9.665 C 189.940 8.607,187.737 8.362,186.991 9.261 M203.409 10.132 C 203.747 13.064,196.406 22.606,194.940 21.140 C 193.358 19.558,194.226 14.987,196.521 12.820 C 201.431 8.185,203.108 7.530,203.409 10.132 M44.636 14.000 C 44.636 15.238,44.734 15.744,44.853 15.125 C 44.972 14.506,44.972 13.494,44.853 12.875 C 44.734 12.256,44.636 12.762,44.636 14.000 M93.500 26.402 L 93.500 40.804 91.803 42.449 C 88.343 45.802,88.267 45.541,88.117 29.818 L 87.984 15.898 89.933 13.949 C 93.553 10.329,93.500 10.145,93.500 26.402 M117.125 14.088 C 118.157 15.294,118.302 18.895,117.371 20.169 C 116.818 20.926,115.872 21.012,109.496 20.889 L 102.250 20.750 102.103 17.432 C 101.897 12.751,101.955 12.717,109.786 12.907 C 115.570 13.048,116.342 13.172,117.125 14.088 M138.742 13.875 C 136.603 21.725,138.393 36.223,141.823 38.840 C 144.026 40.520,143.938 41.547,141.410 43.711 C 137.690 46.895,135.332 45.339,133.304 38.360 C 132.156 34.411,132.150 19.153,133.296 16.850 C 135.020 13.385,139.550 10.911,138.742 13.875 M34.362 13.593 C 35.203 14.291,35.214 19.708,34.375 20.374 C 33.740 20.878,21.769 21.544,20.625 21.138 C 19.973 20.907,19.695 13.971,20.313 13.354 C 20.858 12.809,33.680 13.027,34.362 13.593 M103.999 14.924 C 100.666 18.258,102.110 19.427,109.690 19.532 C 116.266 19.623,116.783 19.413,116.299 16.838 C 115.845 14.413,115.357 14.171,110.124 13.775 L 105.498 13.425 103.999 14.924 M23.000 14.430 C 20.628 14.864,20.018 19.074,22.183 20.061 C 24.538 21.133,32.786 20.150,33.748 18.683 C 35.979 15.277,30.409 13.073,23.000 14.430 M30.924 15.943 C 31.980 16.611,31.392 18.228,30.023 18.422 C 28.505 18.638,27.236 17.171,28.070 16.166 C 28.698 15.409,29.930 15.313,30.924 15.943 M113.920 16.690 C 114.124 17.764,113.236 18.481,111.686 18.492 C 110.366 18.502,109.287 17.276,109.690 16.226 C 110.144 15.044,113.681 15.432,113.920 16.690 M157.484 16.230 C 158.613 17.591,158.735 20.911,157.698 22.058 C 155.800 24.155,155.081 24.195,153.944 22.267 C 153.368 21.291,152.358 20.358,151.699 20.192 C 150.479 19.886,150.302 19.528,150.491 17.750 C 150.730 15.510,155.945 14.376,157.484 16.230 M84.398 22.375 C 84.285 25.881,84.360 29.200,84.564 29.750 C 84.769 30.300,84.951 27.431,84.968 23.375 C 85.007 14.315,84.676 13.734,84.398 22.375 M106.697 16.791 C 107.122 17.900,107.090 18.000,106.303 18.000 C 105.549 18.000,104.881 16.785,105.368 16.299 C 105.882 15.785,106.381 15.970,106.697 16.791 M25.181 17.250 C 25.377 17.760,25.154 18.000,24.484 18.000 C 23.943 18.000,23.500 17.663,23.500 17.250 C 23.500 16.837,23.813 16.500,24.197 16.500 C 24.580 16.500,25.023 16.837,25.181 17.250 M129.197 17.708 C 129.048 18.097,129.006 19.053,129.105 19.833 C 129.252 20.989,129.330 20.859,129.531 19.125 C 129.784 16.939,129.673 16.468,129.197 17.708 M166.500 22.466 C 166.500 24.614,161.909 26.469,158.278 25.788 C 156.087 25.377,156.016 24.496,158.038 22.794 C 160.094 21.065,166.500 20.816,166.500 22.466 M151.639 24.020 C 152.005 26.744,152.598 27.318,155.438 27.695 C 158.210 28.062,158.643 30.090,156.151 31.038 C 152.015 32.610,149.519 29.812,150.259 24.432 C 150.666 21.474,151.273 21.292,151.639 24.020 M34.334 26.780 C 35.069 27.786,35.228 32.367,34.563 33.415 C 34.249 33.910,32.358 34.102,27.196 34.165 L 20.250 34.250 20.250 30.250 L 20.250 26.250 24.500 25.943 C 30.876 25.482,33.551 25.710,34.334 26.780 M44.497 30.852 C 44.361 33.658,44.428 35.776,44.645 35.557 C 44.862 35.339,44.973 33.043,44.892 30.455 L 44.743 25.750 44.497 30.852 M21.841 27.597 C 21.149 28.121,20.970 28.820,21.091 30.518 L 21.250 32.750 26.608 32.892 C 31.437 33.019,32.067 32.933,32.983 32.017 C 34.131 30.869,34.321 28.889,33.361 28.092 C 32.272 27.189,22.909 26.786,21.841 27.597 M109.375 28.315 C 110.919 28.729,110.785 29.672,108.962 31.206 C 106.570 33.218,105.000 32.764,105.000 30.059 C 105.000 28.276,106.700 27.598,109.375 28.315 M31.418 29.678 C 31.669 31.002,30.781 31.679,29.287 31.304 C 28.049 30.993,27.540 29.627,28.356 28.810 C 29.049 28.117,31.239 28.738,31.418 29.678 M25.213 29.835 C 25.605 30.856,24.515 31.635,23.671 30.935 C 22.941 30.329,23.339 29.000,24.250 29.000 C 24.604 29.000,25.037 29.376,25.213 29.835 M114.276 32.248 C 115.268 38.865,113.488 44.454,110.567 43.895 C 108.921 43.579,109.136 33.185,110.826 31.421 C 112.860 29.298,113.870 29.540,114.276 32.248 M201.382 36.616 C 203.549 40.350,203.598 40.526,202.813 41.724 C 200.677 44.985,199.446 44.544,196.473 39.454 C 194.174 35.517,194.178 35.544,195.558 33.790 C 197.389 31.462,198.782 32.138,201.382 36.616 M47.168 40.500 C 47.168 42.563,47.256 43.406,47.364 42.375 C 47.472 41.344,47.472 39.656,47.364 38.625 C 47.256 37.594,47.168 38.438,47.168 40.500 M100.488 41.493 C 101.791 42.191,101.236 43.772,99.259 44.994 C 97.229 46.249,92.455 46.400,91.492 45.241 C 89.629 42.995,97.313 39.794,100.488 41.493 M121.621 41.825 C 123.551 43.018,119.731 46.000,116.273 46.000 C 112.965 46.000,112.055 45.166,113.578 43.531 C 115.596 41.365,119.528 40.531,121.621 41.825 M34.331 42.280 C 34.512 42.753,34.072 43.642,33.213 44.539 L 31.795 46.018 20.523 45.884 C 8.033 45.736,6.921 45.359,10.949 42.645 C 13.168 41.149,33.773 40.828,34.331 42.280 M77.331 42.280 C 77.512 42.752,77.074 43.640,76.221 44.530 L 74.813 46.000 64.641 46.000 C 53.875 46.000,52.833 45.759,54.569 43.667 C 56.413 41.445,76.540 40.218,77.331 42.280 M160.336 42.295 C 160.527 42.792,160.092 43.639,159.173 44.558 L 157.704 46.027 150.378 46.138 C 141.460 46.274,139.810 45.214,144.452 42.332 C 146.359 41.149,159.884 41.117,160.336 42.295 M190.379 42.883 C 190.921 44.523,187.533 46.500,184.181 46.500 C 180.161 46.500,179.503 45.586,181.949 43.400 C 183.728 41.810,189.900 41.432,190.379 42.883 M210.429 42.445 C 211.336 43.020,210.735 44.827,209.337 45.725 C 207.505 46.901,201.000 46.989,201.000 45.837 C 201.000 43.381,207.956 40.878,210.429 42.445 M84.636 44.500 C 84.636 45.737,84.734 46.244,84.853 45.625 C 84.972 45.006,84.972 43.994,84.853 43.375 C 84.734 42.756,84.636 43.263,84.636 44.500 M96.881 48.354 C 97.503 48.473,98.403 48.469,98.881 48.344 C 99.359 48.218,98.850 48.121,97.750 48.126 C 96.650 48.132,96.259 48.234,96.881 48.354 M139.875 49.362 C 140.769 49.473,142.231 49.473,143.125 49.362 C 144.019 49.251,143.287 49.160,141.500 49.160 C 139.713 49.160,138.981 49.251,139.875 49.362 M16.582 55.151 C 16.285 55.509,15.017 56.313,13.765 56.939 C 12.513 57.564,11.593 58.245,11.720 58.452 C 12.004 58.911,7.545 62.712,7.167 62.333 C 7.018 62.185,7.812 61.431,8.930 60.657 C 10.047 59.883,10.971 59.065,10.981 58.839 C 11.001 58.408,10.239 58.966,6.356 62.231 C 5.060 63.320,4.000 64.431,4.000 64.699 C 4.000 64.968,4.725 64.526,5.611 63.719 C 6.919 62.526,6.848 62.680,5.236 64.532 C 4.144 65.787,3.153 66.739,3.033 66.648 C 2.914 66.558,3.065 66.235,3.369 65.931 C 3.673 65.627,3.796 65.049,3.641 64.647 C 3.024 63.038,2.515 65.356,2.508 69.814 C 2.502 73.268,2.682 74.529,3.250 75.000 C 3.663 75.342,4.000 75.932,4.000 76.311 C 4.000 76.690,4.310 77.000,4.689 77.000 C 5.068 77.000,5.676 77.394,6.040 77.875 C 6.603 78.619,6.597 78.657,6.001 78.125 C 4.382 76.681,4.581 77.643,6.221 79.191 C 8.217 81.073,8.187 81.957,6.083 83.275 L 4.750 84.110 6.125 82.785 C 6.881 82.056,7.500 81.314,7.500 81.136 C 7.500 80.958,6.833 81.452,6.018 82.233 C 5.203 83.014,4.638 83.818,4.762 84.020 C 4.887 84.222,4.654 84.665,4.244 85.005 C 2.638 86.338,4.982 91.792,8.834 95.680 L 10.250 97.110 8.863 96.240 C 8.101 95.761,7.264 95.005,7.004 94.560 C 6.733 94.097,6.524 94.012,6.515 94.360 C 6.460 96.594,8.889 97.080,19.798 97.020 L 30.246 96.962 32.114 95.139 C 33.141 94.136,34.098 93.432,34.241 93.574 C 34.383 93.716,33.544 94.602,32.375 95.541 L 30.251 97.250 20.250 97.516 L 10.250 97.781 20.181 97.891 L 30.111 98.000 32.556 95.953 C 33.901 94.827,34.866 93.687,34.700 93.420 C 34.535 93.152,34.703 92.991,35.075 93.062 C 36.135 93.265,40.879 88.579,42.778 85.454 C 45.726 80.602,45.016 76.859,40.332 72.551 L 39.028 71.352 41.264 69.383 C 43.205 67.675,43.489 67.173,43.416 65.583 L 43.332 63.750 43.136 65.625 C 42.980 67.113,42.482 67.883,40.727 69.350 L 38.514 71.200 39.618 72.475 C 40.553 73.555,40.494 73.536,39.236 72.349 C 37.895 71.085,37.834 70.900,38.616 70.455 C 42.917 68.001,43.492 65.105,40.545 60.740 C 39.690 59.472,39.230 58.583,39.523 58.764 C 39.817 58.946,40.715 60.142,41.519 61.422 C 42.323 62.702,42.985 63.577,42.990 63.365 C 43.013 62.456,40.416 59.011,38.315 57.161 L 36.037 55.156 29.643 54.830 C 20.053 54.341,17.196 54.411,16.582 55.151 M37.316 56.907 C 38.217 57.625,38.849 58.317,38.722 58.445 C 38.594 58.573,37.873 58.098,37.120 57.391 C 35.790 56.143,35.489 56.094,26.892 55.749 L 18.033 55.394 15.509 56.947 C 14.121 57.801,12.710 58.500,12.375 58.500 C 12.039 58.500,12.661 58.028,13.757 57.452 C 14.853 56.875,16.087 56.066,16.500 55.655 C 17.950 54.208,35.237 55.247,37.316 56.907 M64.500 55.496 C 63.263 55.696,61.125 56.464,59.750 57.204 C 58.375 57.943,57.644 58.425,58.125 58.274 C 58.606 58.123,59.394 57.874,59.875 57.719 C 60.356 57.565,59.962 57.893,59.000 58.448 C 56.967 59.621,56.287 59.754,56.820 58.875 C 57.423 57.880,51.391 63.215,49.090 65.711 L 47.000 67.978 47.018 77.614 C 47.032 85.374,47.185 87.493,47.802 88.500 C 48.224 89.188,48.385 89.300,48.160 88.750 C 47.934 88.200,47.686 83.362,47.607 78.000 L 47.464 68.250 49.018 66.500 L 50.572 64.750 49.286 66.547 C 48.014 68.324,48.000 68.450,48.000 77.700 L 48.000 87.056 49.531 90.153 C 50.373 91.856,51.780 94.017,52.656 94.954 C 54.069 96.464,54.098 96.549,52.916 95.704 C 52.182 95.179,50.957 93.687,50.194 92.389 C 49.430 91.090,48.721 90.112,48.617 90.216 C 47.695 91.138,54.471 98.456,56.250 98.459 C 56.932 98.460,56.709 98.226,55.549 97.723 C 54.614 97.317,53.959 96.875,54.093 96.740 C 54.228 96.606,55.076 96.864,55.979 97.314 C 59.095 98.869,74.415 98.065,76.833 96.220 C 86.516 88.835,88.009 85.867,87.972 74.084 C 87.941 64.306,87.468 62.174,84.697 59.321 C 83.499 58.087,83.456 57.970,84.447 58.638 C 85.105 59.082,86.060 60.076,86.569 60.847 C 87.077 61.619,87.495 61.965,87.497 61.617 C 87.502 60.682,83.003 56.486,81.141 55.689 C 79.405 54.946,68.686 54.822,64.500 55.496 M82.191 56.665 C 82.959 57.168,83.456 57.711,83.296 57.870 C 83.137 58.030,82.530 57.731,81.948 57.205 C 80.614 56.001,64.224 55.807,62.000 56.969 C 60.946 57.520,60.851 57.516,61.396 56.940 C 62.941 55.309,79.783 55.086,82.191 56.665 M97.222 57.375 C 95.894 58.406,94.063 60.025,93.153 60.973 L 91.500 62.695 91.615 80.223 L 91.731 97.750 91.990 80.057 L 92.250 62.364 95.677 59.307 L 99.105 56.250 103.927 55.964 L 108.750 55.678 104.194 55.589 L 99.638 55.500 97.222 57.375 M105.195 56.470 L 99.141 56.750 95.820 59.667 L 92.500 62.585 92.500 79.989 C 92.500 95.398,92.591 97.428,93.291 97.697 C 95.192 98.426,118.858 98.023,119.500 97.250 C 119.842 96.838,120.489 96.514,120.936 96.532 C 121.513 96.554,121.437 96.690,120.676 96.997 C 120.086 97.235,119.454 97.671,119.272 97.965 C 119.054 98.318,114.560 98.539,106.095 98.616 L 93.250 98.731 105.500 98.881 C 120.214 99.062,122.248 98.448,126.050 92.681 C 127.025 91.202,127.428 84.448,126.617 83.172 C 126.415 82.853,126.328 84.577,126.423 87.001 L 126.596 91.410 124.735 93.330 L 122.873 95.250 124.485 93.303 C 126.069 91.388,126.092 91.286,125.852 87.303 C 125.455 80.721,126.031 81.271,119.362 81.109 C 114.376 80.988,113.536 80.849,113.342 80.109 C 113.175 79.473,113.101 79.538,113.058 80.360 C 113.002 81.441,113.159 81.473,119.125 81.626 L 125.250 81.784 118.943 81.892 L 112.636 82.000 112.318 79.680 C 112.143 78.404,112.000 72.779,112.000 67.180 C 112.000 60.349,111.826 57.000,111.470 57.000 C 111.179 57.000,111.080 56.775,111.250 56.500 C 111.420 56.225,111.489 56.043,111.405 56.095 C 111.320 56.147,108.525 56.316,105.195 56.470 M134.500 58.181 C 132.988 59.381,131.241 60.917,130.618 61.595 L 129.487 62.828 129.625 80.289 L 129.763 97.750 129.882 80.219 L 130.000 62.687 131.625 61.219 L 133.250 59.750 131.875 61.277 L 130.500 62.805 130.500 80.402 L 130.500 98.000 136.720 98.000 C 140.328 98.000,143.071 97.790,143.250 97.500 C 143.420 97.225,143.816 97.000,144.130 97.000 C 144.529 97.000,144.513 97.187,144.077 97.625 C 143.678 98.026,141.177 98.350,137.102 98.529 L 130.750 98.809 136.858 98.904 L 142.965 99.000 144.858 97.406 C 145.898 96.530,147.706 94.908,148.875 93.802 L 151.000 91.792 150.993 75.271 C 150.985 57.459,150.838 56.341,148.487 56.149 L 147.250 56.048 148.482 56.417 C 150.310 56.965,150.396 57.800,150.450 75.524 L 150.500 91.797 148.625 93.540 C 147.594 94.498,146.290 95.613,145.727 96.016 C 145.165 96.420,145.910 95.625,147.384 94.250 L 150.063 91.750 149.906 74.666 C 149.820 65.270,149.598 57.431,149.413 57.246 C 148.576 56.411,139.144 56.355,137.440 57.176 L 135.750 57.989 136.930 56.995 C 139.249 55.040,137.197 56.042,134.500 58.181 M178.500 56.518 C 188.255 56.910,188.992 57.097,191.550 59.828 C 195.121 63.640,195.000 63.097,195.000 75.286 L 195.000 86.350 193.561 88.300 C 192.770 89.372,190.184 91.938,187.815 94.000 C 185.446 96.063,183.506 97.917,183.504 98.122 C 183.495 99.006,192.055 91.050,194.071 88.300 L 195.500 86.350 195.500 75.250 L 195.500 64.150 194.062 62.200 C 189.950 56.624,188.210 55.992,177.250 56.095 L 169.750 56.166 178.500 56.518 M319.591 56.425 C 318.492 56.733,345.516 56.644,349.750 56.325 C 350.850 56.242,344.775 56.158,336.250 56.137 C 327.725 56.117,320.229 56.246,319.591 56.425 M360.470 58.279 C 354.697 63.115,354.276 64.605,357.286 69.560 C 358.269 71.177,359.187 72.500,359.327 72.500 C 359.565 72.500,358.158 70.000,356.660 67.764 C 355.260 65.673,355.816 63.053,358.103 60.962 C 359.260 59.905,360.315 59.148,360.448 59.281 C 360.581 59.414,360.154 59.898,359.500 60.356 C 354.784 63.659,354.910 64.185,363.931 78.958 L 366.500 83.165 366.500 90.833 L 366.500 98.500 372.939 98.500 C 378.052 98.500,379.506 98.346,380.000 97.750 C 380.342 97.338,380.850 97.000,381.129 97.000 C 381.407 97.000,381.072 97.443,380.384 97.984 C 379.323 98.819,378.191 98.992,372.941 99.126 L 366.750 99.284 372.913 99.392 L 379.076 99.500 381.913 97.306 C 385.996 94.147,387.122 92.808,386.859 91.424 C 386.650 90.325,386.632 90.335,386.568 91.583 C 386.498 92.949,382.162 97.358,381.548 96.688 C 381.384 96.509,381.569 96.250,381.958 96.112 C 382.347 95.974,383.435 95.157,384.375 94.295 L 386.084 92.729 386.329 86.490 C 386.544 81.017,387.045 78.372,388.031 77.500 C 390.375 75.429,396.177 63.899,396.392 60.884 L 396.634 57.500 392.192 57.387 C 383.566 57.167,384.001 57.080,380.847 59.649 C 377.347 62.500,377.807 62.514,375.952 59.500 L 374.414 57.000 368.909 57.000 C 364.145 57.000,363.209 57.139,361.952 58.034 C 361.153 58.603,360.500 58.948,360.500 58.802 C 360.500 58.656,361.340 57.965,362.366 57.268 C 363.392 56.571,363.998 56.000,363.711 56.000 C 363.425 56.000,361.966 57.025,360.470 58.279 M368.140 56.368 C 369.455 56.471,371.480 56.470,372.640 56.365 C 373.801 56.261,372.725 56.176,370.250 56.177 C 367.775 56.179,366.826 56.265,368.140 56.368 M381.338 58.286 C 379.777 59.571,378.500 60.726,378.500 60.853 C 378.500 60.980,379.420 60.334,380.544 59.417 C 384.284 56.366,383.806 56.488,390.521 56.883 L 396.750 57.250 396.708 60.750 C 396.671 63.733,396.435 64.634,395.109 66.853 C 394.252 68.285,393.176 70.085,392.717 70.853 L 391.881 72.250 392.944 71.000 C 395.434 68.072,397.099 64.297,397.360 60.985 C 397.694 56.762,397.609 56.706,390.213 56.290 L 384.176 55.950 381.338 58.286 M161.192 57.012 C 160.611 57.235,158.872 58.618,157.328 60.084 L 154.521 62.750 154.429 80.127 C 154.378 89.684,154.492 97.659,154.682 97.849 C 154.873 98.039,161.266 98.351,168.889 98.542 L 182.750 98.889 168.878 98.798 C 159.061 98.733,154.835 98.535,154.421 98.121 C 153.993 97.693,153.861 92.867,153.929 80.143 L 154.021 62.750 157.024 59.875 C 158.675 58.294,159.845 57.000,159.623 57.000 C 159.400 57.000,157.954 58.255,156.408 59.788 L 153.597 62.576 153.395 79.913 C 153.206 96.192,153.249 97.311,154.111 98.250 C 155.249 99.491,182.744 99.850,182.748 98.623 C 182.749 98.279,184.960 96.009,187.662 93.579 C 194.933 87.040,194.493 88.214,194.497 75.340 L 194.500 64.430 193.053 62.340 C 190.588 58.779,189.437 57.997,185.944 57.509 C 181.554 56.895,162.494 56.512,161.192 57.012 M212.092 56.995 C 211.181 57.211,209.929 57.862,209.310 58.444 C 208.692 59.025,207.832 59.500,207.400 59.500 C 206.968 59.500,205.070 60.988,203.182 62.807 C 201.294 64.626,200.200 65.807,200.750 65.432 C 201.670 64.804,201.695 64.820,201.058 65.632 C 200.678 66.116,200.008 66.454,199.570 66.382 C 197.923 66.109,197.558 69.192,197.528 83.595 C 197.513 91.211,197.669 97.545,197.875 97.672 C 198.081 97.800,198.250 91.232,198.250 83.077 C 198.250 71.601,198.400 68.024,198.913 67.250 L 199.576 66.250 199.163 67.250 C 198.936 67.800,198.698 75.112,198.635 83.500 C 198.498 101.560,197.847 100.000,205.528 100.000 L 210.864 100.000 214.682 96.990 C 216.782 95.334,218.500 93.734,218.500 93.434 C 218.500 93.134,218.106 93.325,217.625 93.857 C 216.280 95.344,212.000 98.619,212.003 98.158 C 212.004 97.934,213.240 96.858,214.749 95.768 C 217.433 93.828,219.010 91.229,218.249 89.998 C 217.813 89.293,218.459 86.500,219.057 86.500 C 219.355 86.500,219.361 86.830,219.073 87.375 C 218.819 87.856,218.671 89.375,218.744 90.750 C 219.155 98.446,219.207 98.602,219.500 93.000 L 219.801 87.250 219.900 92.875 L 220.000 98.500 225.906 98.500 L 231.812 98.500 234.623 96.375 C 238.793 93.222,238.750 93.427,238.750 76.677 C 238.750 62.929,238.694 62.038,237.769 60.927 L 236.787 59.750 238.019 60.889 L 239.250 62.027 239.250 76.889 C 239.250 93.811,239.408 93.079,235.000 96.571 L 232.250 98.750 226.250 99.030 L 220.250 99.311 226.059 99.405 L 231.868 99.500 235.095 97.009 C 239.944 93.266,239.750 94.099,239.750 77.001 C 239.750 60.412,240.031 61.745,235.830 58.417 L 233.410 56.500 223.580 56.551 C 218.174 56.579,213.004 56.779,212.092 56.995 M248.200 57.940 C 247.128 58.731,245.383 60.283,244.323 61.388 L 242.397 63.398 242.240 77.074 L 242.083 90.750 242.496 77.068 L 242.909 63.386 244.829 61.401 C 249.002 57.089,248.231 57.282,262.500 56.983 L 275.250 56.717 262.700 56.608 L 250.150 56.500 248.200 57.940 M290.766 59.784 L 287.000 63.069 287.103 67.659 L 287.206 72.250 287.374 67.776 C 287.556 62.930,287.653 62.715,290.702 60.422 C 292.551 59.031,292.516 59.094,290.347 61.066 L 287.945 63.250 287.646 78.750 C 287.482 87.275,287.508 95.319,287.704 96.625 L 288.061 99.000 293.935 99.000 C 298.326 99.000,300.054 98.815,300.779 98.266 C 301.313 97.862,301.969 97.525,302.236 97.516 C 305.185 97.419,299.354 99.311,296.000 99.539 L 291.750 99.828 295.691 99.914 C 299.695 100.001,303.472 98.669,302.711 97.437 C 302.549 97.175,303.391 96.095,304.583 95.038 L 306.750 93.115 306.893 75.308 L 307.036 57.500 300.829 57.500 C 295.922 57.500,294.492 57.657,294.000 58.250 C 293.658 58.663,293.132 59.000,292.832 59.000 C 292.531 59.000,292.679 58.606,293.159 58.125 C 293.869 57.413,295.263 57.198,300.641 56.971 L 307.250 56.693 300.891 56.596 L 294.532 56.500 290.766 59.784 M112.713 67.750 C 112.713 73.800,112.786 76.206,112.874 73.097 C 112.961 69.988,112.961 65.038,112.873 62.097 C 112.785 59.156,112.713 61.700,112.713 67.750 M235.098 58.318 C 236.144 59.043,237.000 59.718,237.000 59.818 C 237.000 60.309,236.108 59.876,234.797 58.749 C 232.119 56.446,211.903 57.008,209.294 59.458 C 208.685 60.031,207.870 60.500,207.485 60.500 C 207.100 60.500,205.713 61.555,204.404 62.845 C 203.094 64.135,201.895 65.061,201.737 64.904 C 201.352 64.519,206.682 60.000,207.522 60.000 C 207.887 60.000,208.692 59.525,209.310 58.944 C 211.001 57.355,212.860 57.107,223.473 57.051 L 233.196 57.000 235.098 58.318 M276.544 57.350 C 277.285 57.465,278.887 58.661,280.294 60.150 L 282.750 62.750 280.107 60.250 L 277.463 57.750 263.984 57.583 C 248.836 57.395,249.335 57.294,245.385 61.355 L 243.519 63.272 243.190 72.511 C 243.008 77.593,243.028 85.519,243.233 90.125 L 243.606 98.500 249.786 98.500 L 255.965 98.500 257.749 96.933 C 258.731 96.072,259.633 95.466,259.753 95.587 C 259.874 95.708,259.030 96.531,257.877 97.417 L 255.781 99.028 249.516 98.889 L 243.250 98.750 242.967 94.750 L 242.683 90.750 242.592 94.525 C 242.470 99.525,242.433 99.500,249.783 99.500 C 256.574 99.500,256.434 99.554,261.096 95.091 L 263.442 92.845 263.767 94.297 C 264.964 99.636,265.462 100.000,271.574 100.000 L 276.474 100.000 280.019 96.949 C 285.273 92.427,286.119 87.117,282.098 83.898 C 281.629 83.522,281.766 83.930,282.425 84.870 C 285.302 88.973,284.549 92.506,279.954 96.470 L 276.443 99.500 271.833 99.500 C 266.430 99.500,265.211 98.921,264.704 96.111 C 264.039 92.427,263.649 92.172,261.580 94.072 L 259.752 95.750 261.251 94.008 C 262.075 93.050,262.967 92.107,263.232 91.912 C 263.792 91.502,264.691 93.431,265.194 96.119 C 265.658 98.602,266.589 99.000,271.927 99.000 L 276.420 99.000 279.696 96.203 C 284.227 92.335,284.710 89.083,281.466 84.277 C 280.649 83.067,279.639 81.259,279.221 80.258 L 278.461 78.440 280.659 75.995 C 283.093 73.288,284.112 68.328,283.014 64.533 C 282.741 63.589,282.632 62.702,282.771 62.562 C 283.391 61.943,277.759 57.002,276.517 57.075 L 275.250 57.150 276.544 57.350 M313.875 60.539 C 310.158 64.282,310.107 64.461,311.010 70.500 C 311.331 72.645,311.366 72.257,311.167 68.739 L 310.912 64.228 313.002 61.989 L 315.092 59.750 313.254 62.000 L 311.416 64.250 311.762 68.500 C 312.164 73.447,312.199 73.482,316.625 73.492 L 320.000 73.500 320.000 86.000 L 320.000 98.500 327.125 98.592 L 334.250 98.683 328.750 98.967 C 325.725 99.122,322.462 99.134,321.500 98.992 L 319.750 98.734 319.616 86.367 L 319.483 74.000 315.866 74.098 L 312.250 74.196 315.625 74.371 L 319.000 74.546 319.000 86.462 C 319.000 99.315,318.964 99.143,321.750 99.666 C 324.011 100.090,334.265 99.333,334.161 98.750 C 334.043 98.093,335.503 96.496,336.202 96.516 C 336.504 96.525,336.316 96.860,335.787 97.261 C 335.257 97.662,334.937 98.104,335.076 98.243 C 335.215 98.382,335.874 97.898,336.540 97.167 C 337.205 96.437,337.434 96.022,337.048 96.247 C 336.560 96.530,336.461 96.467,336.723 96.043 C 336.931 95.707,337.403 95.548,337.772 95.689 C 338.141 95.831,339.131 95.163,339.972 94.206 L 341.500 92.465 341.403 85.858 L 341.306 79.250 341.028 86.087 C 340.765 92.559,339.481 96.648,338.134 95.301 C 338.027 95.194,338.516 94.530,339.220 93.826 C 340.469 92.576,340.501 92.373,340.544 85.398 C 340.568 81.466,340.737 77.125,340.919 75.750 L 341.250 73.250 343.750 73.000 C 347.121 72.663,351.740 69.265,352.488 66.572 C 353.087 64.416,353.103 59.169,352.515 57.750 C 352.273 57.164,352.208 58.304,352.359 60.500 C 352.792 66.814,351.574 69.065,346.033 72.192 C 344.903 72.830,345.845 71.984,348.500 69.977 C 351.797 67.484,352.440 65.448,351.729 59.752 L 351.375 56.920 334.312 57.030 L 317.250 57.140 313.875 60.539 M36.599 58.627 C 38.215 59.972,40.554 64.276,40.188 65.231 C 39.628 66.691,34.662 66.721,31.250 65.284 C 27.345 63.640,20.000 64.950,20.000 67.290 C 20.000 69.423,21.569 69.994,28.360 70.327 C 34.817 70.645,35.000 70.686,36.239 72.076 C 36.937 72.859,37.714 73.500,37.967 73.500 C 39.139 73.500,41.623 79.065,41.352 81.085 C 40.742 85.629,36.288 90.397,33.422 89.572 C 32.351 89.263,32.117 89.074,32.771 89.045 C 33.839 88.998,37.480 85.539,38.442 83.658 C 39.888 80.828,37.746 73.000,35.525 73.000 C 35.066 73.000,34.254 72.670,33.721 72.266 C 32.991 71.714,31.207 71.528,26.539 71.516 C 19.025 71.497,18.500 71.216,18.500 67.208 C 18.500 63.328,19.020 63.000,25.168 63.000 C 29.310 63.000,30.615 63.187,32.131 64.000 C 36.526 66.356,39.405 64.012,36.056 60.803 C 33.247 58.112,20.766 57.416,17.670 59.777 C 12.937 63.387,12.861 70.769,17.516 74.687 C 19.158 76.069,19.270 76.085,28.000 76.270 C 33.559 76.388,33.253 76.311,33.920 77.774 C 34.762 79.623,34.632 81.726,33.596 83.006 C 32.443 84.430,23.647 84.619,21.050 83.276 C 17.352 81.363,14.048 82.676,15.758 85.379 C 17.468 88.083,18.401 88.474,23.250 88.524 C 27.877 88.572,30.171 89.027,29.105 89.685 C 27.920 90.417,17.698 89.653,16.284 88.726 C 14.661 87.663,13.559 85.646,13.382 83.414 L 13.250 81.750 17.386 81.605 C 20.487 81.496,21.798 81.652,22.623 82.230 C 23.781 83.041,30.726 83.335,31.800 82.617 C 36.298 79.614,33.177 77.303,24.198 76.990 C 15.418 76.684,15.462 76.700,14.129 73.353 C 11.694 67.242,12.233 62.889,15.923 58.875 L 17.187 57.500 26.219 57.502 C 34.843 57.505,35.311 57.556,36.599 58.627 M82.022 58.750 C 85.641 61.956,87.042 71.031,85.523 81.440 C 84.340 89.556,83.821 89.893,72.246 90.089 C 58.644 90.318,57.771 89.283,58.296 73.554 C 58.808 58.221,59.229 57.750,72.418 57.750 C 80.183 57.750,80.987 57.834,82.022 58.750 M316.767 58.778 C 316.009 59.480,315.289 59.956,315.168 59.835 C 314.947 59.613,317.411 57.500,317.890 57.500 C 318.031 57.500,317.526 58.075,316.767 58.778 M375.500 57.605 C 375.500 58.217,377.619 61.548,377.856 61.310 C 377.984 61.182,377.506 60.221,376.794 59.173 C 376.083 58.125,375.500 57.420,375.500 57.605 M109.504 59.006 C 109.690 59.307,109.887 64.771,109.942 71.148 C 110.060 84.722,109.578 83.768,116.224 83.574 C 123.065 83.375,123.595 83.658,123.399 87.405 L 123.250 90.250 120.750 90.323 C 119.375 90.364,118.813 90.287,119.500 90.153 C 121.064 89.847,122.502 88.596,122.492 87.548 C 122.473 85.513,121.737 85.258,115.145 85.000 L 108.750 84.750 108.500 72.356 C 108.233 59.143,108.124 58.626,105.750 59.312 C 104.109 59.786,103.500 61.036,103.500 63.929 C 103.500 65.435,103.372 66.538,103.215 66.381 C 102.725 65.892,102.598 59.279,103.068 58.691 C 103.630 57.985,109.037 58.250,109.504 59.006 M134.750 59.000 C 134.252 59.550,133.599 59.995,133.298 59.989 C 132.996 59.983,133.313 59.538,134.000 59.000 C 135.611 57.740,135.890 57.740,134.750 59.000 M146.900 58.600 C 147.336 59.036,147.486 62.481,147.450 71.225 C 147.422 78.031,147.227 82.707,147.000 82.000 C 146.780 81.313,146.577 76.437,146.550 71.166 C 146.522 65.895,146.363 61.226,146.197 60.791 C 145.789 59.728,142.087 59.692,141.682 60.747 C 141.319 61.693,140.500 61.224,140.500 60.070 C 140.500 58.634,141.571 58.000,144.000 58.000 C 145.265 58.000,146.570 58.270,146.900 58.600 M307.393 75.536 L 307.250 93.073 305.144 95.036 C 303.986 96.116,303.226 97.000,303.456 97.000 C 303.685 97.000,304.801 95.993,305.936 94.761 L 308.000 92.522 308.000 75.261 C 308.000 65.768,307.896 58.000,307.768 58.000 C 307.641 58.000,307.472 65.891,307.393 75.536 M138.177 75.708 C 138.033 93.495,138.149 92.815,134.984 94.508 C 132.926 95.610,132.785 94.770,132.612 80.363 C 132.410 63.438,132.488 62.820,135.128 60.382 C 138.331 57.424,138.324 57.388,138.177 75.708 M188.926 60.049 C 191.936 62.417,191.993 62.703,191.997 75.441 L 192.000 87.132 189.740 89.392 L 187.480 91.652 178.365 91.300 C 166.304 90.835,165.535 90.000,177.168 90.000 C 190.301 90.000,190.350 89.947,190.566 75.500 C 190.790 60.485,190.521 60.187,176.522 59.929 L 166.794 59.750 165.647 61.449 L 164.500 63.148 164.500 61.157 C 164.500 58.292,164.221 58.349,176.437 58.702 C 186.679 58.997,187.733 59.111,188.926 60.049 M348.982 59.228 C 349.957 60.403,349.257 61.828,348.216 60.787 C 347.546 60.118,345.748 60.000,336.181 60.000 C 324.356 60.000,323.000 60.223,323.000 62.168 C 323.000 64.036,323.953 64.500,327.789 64.500 C 332.756 64.500,332.538 63.885,332.383 77.452 C 332.241 89.861,332.262 89.974,334.775 89.992 C 336.882 90.008,337.000 89.343,337.000 77.441 C 337.000 63.286,336.485 64.500,342.492 64.500 C 346.209 64.500,347.525 64.322,347.995 63.756 C 348.608 63.017,349.500 63.158,349.500 63.994 C 349.500 65.437,347.807 66.000,343.474 66.000 C 338.075 66.000,338.587 64.686,338.389 79.053 C 338.220 91.430,338.198 91.500,334.539 91.500 C 331.108 91.500,331.176 91.763,331.330 79.070 C 331.497 65.292,331.738 65.917,326.216 65.820 L 322.250 65.750 322.097 62.764 C 321.979 60.473,322.130 59.641,322.746 59.191 C 324.084 58.213,348.167 58.246,348.982 59.228 M372.689 58.796 C 373.112 58.958,374.522 60.985,375.821 63.300 C 379.783 70.357,380.142 70.505,382.860 66.202 C 384.200 64.081,385.500 63.312,385.500 64.641 C 385.500 66.031,380.880 73.050,380.068 72.894 C 379.306 72.747,377.581 70.032,374.027 63.384 C 372.494 60.516,371.268 59.685,369.165 60.086 C 367.375 60.427,367.913 62.372,371.500 68.535 C 377.509 78.860,380.064 85.188,375.906 79.450 C 369.499 70.609,365.086 60.581,366.833 58.833 C 367.246 58.421,371.638 58.392,372.689 58.796 M64.712 59.499 C 60.115 61.292,58.221 68.346,59.451 79.094 C 60.441 87.746,61.672 88.807,71.250 89.267 C 79.549 89.666,80.671 89.216,83.133 84.503 C 86.250 78.536,84.650 63.284,80.589 60.250 C 79.147 59.173,67.018 58.599,64.712 59.499 M100.302 75.348 L 100.353 91.446 98.730 93.020 C 95.297 96.346,95.266 96.220,95.118 78.274 L 94.986 62.312 96.610 60.637 C 100.189 56.944,100.243 57.161,100.302 75.348 M161.882 75.510 L 162.014 91.688 160.390 93.363 C 156.825 97.042,156.767 96.818,156.618 78.804 L 156.486 62.859 158.541 60.904 C 161.798 57.805,161.735 57.530,161.882 75.510 M216.869 59.314 C 218.540 59.761,217.711 60.500,215.538 60.500 C 213.638 60.500,211.726 61.599,209.892 63.746 C 209.043 64.738,209.033 64.735,209.017 63.442 C 208.991 61.414,210.722 59.591,212.888 59.363 C 213.912 59.256,214.975 59.133,215.250 59.091 C 215.525 59.048,216.254 59.149,216.869 59.314 M234.875 60.349 L 236.500 61.551 236.500 71.125 C 236.500 78.250,236.355 80.555,235.934 80.134 C 235.588 79.788,235.394 77.858,235.433 75.159 C 235.558 66.598,235.081 63.657,233.252 61.718 L 231.628 59.995 226.551 60.299 C 220.604 60.654,216.731 59.993,221.750 59.480 C 228.724 58.767,233.132 59.059,234.875 60.349 M277.533 59.838 C 282.367 62.660,282.338 74.411,277.490 77.005 C 276.004 77.801,276.271 79.150,278.750 83.385 C 282.150 89.194,281.547 93.126,277.492 91.581 L 276.250 91.108 277.589 90.759 C 280.104 90.103,279.485 87.707,275.078 81.036 C 274.091 79.543,273.502 78.246,273.767 78.153 C 279.803 76.044,281.576 66.503,276.768 62.010 C 274.692 60.070,256.589 59.272,254.710 61.037 L 253.500 62.174 253.500 60.879 C 253.500 59.185,252.913 59.274,265.243 59.088 C 274.900 58.943,276.128 59.018,277.533 59.838 M304.317 61.500 C 304.355 62.737,304.282 63.120,304.157 62.349 C 304.008 61.436,303.494 60.783,302.682 60.474 C 300.894 59.794,300.595 59.860,299.227 61.227 L 298.000 62.455 298.000 61.019 C 298.000 59.283,298.513 59.027,301.750 59.153 L 304.250 59.250 304.317 61.500 M390.000 59.420 C 390.000 59.931,387.470 61.137,387.124 60.790 C 386.988 60.654,387.010 60.196,387.173 59.772 C 387.476 58.979,390.000 58.665,390.000 59.420 M393.508 59.759 C 394.435 60.877,393.807 65.871,392.537 67.471 C 386.189 75.470,383.348 81.412,383.718 85.918 C 384.105 90.635,383.761 91.265,380.833 91.204 C 377.580 91.135,376.995 90.779,377.032 88.891 C 377.060 87.440,377.114 87.377,377.503 88.342 C 378.450 90.691,381.735 91.036,382.258 88.842 C 382.401 88.241,382.585 85.838,382.667 83.500 C 382.749 81.162,383.113 78.688,383.477 78.000 C 384.946 75.218,389.753 67.087,391.379 64.632 C 393.202 61.879,393.237 60.599,391.503 60.146 C 390.958 60.003,390.634 59.687,390.785 59.443 C 391.219 58.742,392.817 58.927,393.508 59.759 M53.817 62.250 C 52.205 63.763,50.743 64.990,50.568 64.977 C 50.209 64.951,56.111 59.502,56.499 59.501 C 56.637 59.500,55.430 60.737,53.817 62.250 M250.755 60.008 C 250.927 60.287,251.051 67.513,251.030 76.065 L 250.992 91.616 249.684 93.183 C 245.740 97.909,245.500 97.090,245.500 78.880 L 245.500 63.382 247.441 61.441 C 249.431 59.451,250.204 59.117,250.755 60.008 M319.396 63.370 C 319.556 67.245,317.669 70.210,315.250 69.885 C 313.173 69.605,313.826 63.312,316.153 61.179 C 318.737 58.811,319.221 59.139,319.396 63.370 M364.008 61.125 C 364.013 62.019,364.519 63.577,365.133 64.587 C 372.509 76.720,373.020 78.057,371.036 80.041 C 368.939 82.138,368.124 81.806,365.402 77.749 C 357.975 66.683,357.168 63.436,361.144 60.625 C 363.337 59.075,363.998 59.190,364.008 61.125 M295.499 77.186 L 295.498 93.250 299.289 93.084 C 302.998 92.922,303.077 92.943,302.915 94.067 C 302.478 97.105,293.191 99.149,293.283 96.186 C 293.310 95.312,293.043 95.134,291.783 95.186 C 289.764 95.270,289.671 94.315,289.998 76.835 L 290.250 63.421 292.156 61.675 C 295.468 58.642,295.500 58.791,295.499 77.186 M383.227 61.625 C 382.103 65.334,380.028 66.920,378.945 64.897 C 378.419 63.914,378.560 63.618,380.261 62.147 C 382.531 60.185,383.726 59.975,383.227 61.625 M10.500 67.255 C 10.737 71.040,12.389 75.500,13.554 75.500 C 13.757 75.500,14.659 76.119,15.557 76.875 C 17.146 78.212,17.363 78.250,23.328 78.250 C 28.241 78.250,29.621 78.407,30.250 79.036 C 31.173 79.959,30.766 81.472,29.572 81.562 C 26.996 81.757,23.131 81.298,22.271 80.696 C 21.581 80.213,19.733 80.000,16.224 80.000 C 6.063 80.000,0.991 71.863,6.871 64.995 C 9.474 61.954,10.196 62.404,10.500 67.255 M56.069 68.042 C 55.970 70.631,55.821 74.662,55.739 77.000 C 55.533 82.822,56.461 85.907,59.292 88.820 C 61.760 91.360,61.734 91.635,58.806 93.958 C 53.683 98.022,50.337 92.380,50.091 79.261 C 49.892 68.684,50.017 68.022,52.741 65.178 C 55.845 61.940,56.289 62.322,56.069 68.042 M283.237 63.426 C 283.449 63.797,283.808 65.260,284.036 66.676 L 284.451 69.250 284.296 66.596 C 284.211 65.136,283.851 63.673,283.497 63.346 C 282.992 62.879,282.936 62.896,283.237 63.426 M77.724 64.779 C 80.980 66.913,80.803 81.148,77.490 83.507 C 75.095 85.213,67.355 85.027,65.468 83.219 L 64.000 81.813 64.008 75.531 C 64.020 64.848,65.169 63.186,72.176 63.712 C 74.690 63.900,77.086 64.361,77.724 64.779 M184.000 65.144 C 184.821 65.557,185.308 66.279,185.419 67.246 L 185.588 68.719 184.588 67.484 C 183.647 66.321,173.384 65.000,171.875 65.848 C 171.669 65.964,171.497 68.914,171.492 72.405 C 171.486 78.063,170.667 82.963,170.432 78.750 C 170.286 76.140,170.603 65.266,170.836 64.875 C 171.223 64.224,182.636 64.457,184.000 65.144 M206.204 65.310 C 206.375 65.756,206.493 72.156,206.466 79.533 L 206.416 92.945 204.742 94.223 C 202.914 95.616,201.765 95.834,201.186 94.896 C 200.698 94.106,200.936 68.025,201.440 67.125 C 202.521 65.194,205.695 63.985,206.204 65.310 M298.936 74.000 C 298.929 80.632,298.311 83.381,297.812 79.000 C 297.534 76.564,297.589 72.619,297.989 66.250 L 298.115 64.250 298.529 66.250 C 298.756 67.350,298.940 70.838,298.936 74.000 M73.785 65.443 C 73.634 65.687,73.924 65.994,74.429 66.126 C 77.060 66.814,77.197 80.880,74.583 81.883 C 73.357 82.354,72.500 80.492,72.500 77.357 C 72.500 74.007,71.398 71.619,69.651 71.180 C 67.203 70.566,67.203 67.281,69.651 66.098 C 70.727 65.579,70.723 65.567,69.436 65.534 C 64.963 65.419,63.736 80.152,68.009 82.676 C 75.005 86.808,81.111 78.790,78.265 69.208 C 77.434 66.409,74.639 64.061,73.785 65.443 M88.474 74.250 C 88.323 79.475,88.030 84.313,87.822 85.000 C 87.615 85.688,87.800 85.481,88.234 84.542 C 88.878 83.145,88.997 81.180,88.885 73.792 L 88.748 64.750 88.474 74.250 M229.722 66.111 C 230.538 67.277,230.821 72.242,230.097 72.690 C 229.098 73.308,215.944 73.576,215.241 72.993 C 214.303 72.214,214.350 67.645,215.312 66.125 C 216.404 64.397,228.513 64.386,229.722 66.111 M273.981 66.094 C 275.350 67.565,275.380 71.120,274.033 72.467 C 273.154 73.346,272.487 73.415,266.658 73.224 C 263.134 73.109,260.081 73.012,259.875 73.008 C 259.411 72.998,259.372 65.794,259.833 65.333 C 260.821 64.346,272.960 64.999,273.981 66.094 M29.322 66.781 C 29.912 67.151,32.050 67.521,34.072 67.602 C 36.942 67.718,37.750 67.915,37.750 68.500 C 37.750 69.102,37.158 69.217,34.750 69.081 C 33.100 68.988,29.750 68.876,27.306 68.831 C 23.611 68.764,22.767 68.597,22.306 67.846 C 20.976 65.682,26.286 64.876,29.322 66.781 M141.721 67.274 C 142.120 69.400,141.570 73.603,140.944 73.215 C 140.364 72.857,140.364 65.500,140.944 65.500 C 141.189 65.500,141.538 66.298,141.721 67.274 M165.433 77.267 C 165.283 87.382,165.350 88.506,166.156 89.396 C 166.872 90.188,166.910 90.428,166.351 90.642 C 164.906 91.196,164.615 90.162,164.484 84.000 C 164.239 72.451,164.457 65.414,165.049 65.780 C 165.429 66.015,165.547 69.548,165.433 77.267 M304.994 71.905 C 304.988 78.740,304.531 82.520,303.956 80.500 C 303.504 78.915,303.399 69.132,303.811 67.071 C 304.439 63.928,305.000 66.216,304.994 71.905 M218.500 66.374 C 216.223 67.153,215.142 70.165,216.680 71.442 C 217.737 72.319,227.899 72.029,228.834 71.095 C 229.665 70.264,229.365 68.190,228.248 67.049 C 227.558 66.343,220.097 65.827,218.500 66.374 M261.271 66.618 C 260.489 67.056,260.221 69.692,260.803 71.209 C 261.422 72.820,272.297 72.326,273.177 70.648 C 274.042 68.997,273.366 67.096,271.789 66.745 C 269.740 66.288,262.026 66.196,261.271 66.618 M1.599 70.564 C 1.525 73.436,1.685 74.531,2.250 75.000 C 2.663 75.342,3.018 75.989,3.039 76.436 C 3.067 76.998,3.160 77.047,3.341 76.596 C 3.485 76.236,3.253 75.556,2.825 75.083 C 2.311 74.515,1.989 72.961,1.874 70.487 L 1.699 66.750 1.599 70.564 M181.947 67.875 C 183.675 69.304,182.859 82.664,181.028 82.922 C 179.127 83.191,178.500 81.821,178.500 77.404 C 178.500 73.252,177.640 71.500,175.600 71.500 C 173.915 71.500,172.650 68.516,173.833 67.333 C 174.594 66.573,180.880 66.992,181.947 67.875 M254.084 69.616 C 253.639 70.061,253.508 69.790,253.534 68.475 C 253.566 66.855,253.601 66.819,254.118 67.891 C 254.524 68.735,254.515 69.185,254.084 69.616 M325.055 68.055 C 325.915 68.915,326.322 69.014,327.255 68.589 C 328.986 67.800,329.000 67.886,329.000 79.478 C 329.000 88.893,328.884 90.516,328.102 92.050 L 327.204 93.812 328.977 93.178 C 334.116 91.340,338.332 92.854,335.484 95.515 C 333.350 97.509,326.223 97.655,326.281 95.704 C 326.309 94.758,326.175 94.710,324.884 95.197 C 322.663 96.035,322.516 95.271,322.508 82.811 L 322.500 71.372 320.585 71.678 C 317.347 72.196,316.351 71.008,318.411 69.084 C 319.839 67.749,320.718 67.393,323.375 67.075 C 323.719 67.034,324.475 67.475,325.055 68.055 M348.000 67.906 C 348.000 70.497,342.258 73.004,340.974 70.975 C 340.329 69.956,340.391 68.309,341.100 67.600 C 342.146 66.554,348.000 66.814,348.000 67.906 M226.495 68.244 C 228.087 70.163,224.693 71.915,222.885 70.107 C 221.459 68.681,222.042 67.500,224.173 67.500 C 225.111 67.500,226.155 67.835,226.495 68.244 M271.191 68.616 C 272.069 70.018,270.433 71.358,268.768 70.599 C 267.565 70.051,267.084 68.582,267.856 67.810 C 268.473 67.193,270.626 67.713,271.191 68.616 M209.353 71.125 C 209.234 71.744,209.136 71.237,209.136 70.000 C 209.136 68.763,209.234 68.256,209.353 68.875 C 209.472 69.494,209.472 70.506,209.353 71.125 M265.000 68.917 C 265.000 70.096,264.580 70.499,263.701 70.162 C 262.595 69.738,262.835 68.000,264.000 68.000 C 264.636 68.000,265.000 68.333,265.000 68.917 M219.697 69.291 C 220.125 70.408,220.092 70.500,219.250 70.500 C 218.833 70.500,218.500 70.056,218.500 69.500 C 218.500 68.308,219.268 68.174,219.697 69.291 M283.584 71.143 C 283.487 73.327,282.457 75.208,280.355 77.038 L 278.876 78.325 279.944 80.740 C 280.531 82.068,281.115 83.051,281.242 82.925 C 281.368 82.799,280.985 81.713,280.392 80.513 L 279.312 78.331 280.461 77.568 C 282.458 76.242,284.080 73.153,283.862 71.090 L 283.668 69.250 283.584 71.143 M103.575 79.477 C 103.520 89.365,103.405 89.114,108.304 89.812 L 112.250 90.374 108.750 90.516 C 101.903 90.794,102.423 92.288,102.932 73.792 C 103.092 67.999,103.614 72.614,103.575 79.477 M69.420 73.774 C 70.099 75.264,70.202 80.816,69.558 81.214 C 68.967 81.579,68.062 79.175,67.972 77.000 C 67.780 72.399,68.283 71.278,69.420 73.774 M389.306 76.343 C 387.682 79.000,387.014 80.591,387.151 81.472 L 387.350 82.750 387.425 81.380 C 387.466 80.627,388.526 78.409,389.781 76.452 C 391.035 74.495,391.971 72.804,391.860 72.693 C 391.749 72.583,390.600 74.225,389.306 76.343 M176.315 74.125 C 176.149 74.744,176.011 76.743,176.007 78.567 C 176.000 81.705,175.933 81.896,174.750 82.122 L 173.500 82.361 173.500 77.681 L 173.500 73.000 175.058 73.000 C 176.430 73.000,176.581 73.134,176.315 74.125 M286.716 84.750 C 286.716 91.350,286.787 93.981,286.874 90.596 C 286.960 87.212,286.960 81.812,286.873 78.596 C 286.786 75.381,286.715 78.150,286.716 84.750 M359.500 73.161 C 359.500 73.341,360.794 75.568,362.375 78.111 L 365.250 82.733 365.526 89.991 L 365.803 97.250 365.901 90.226 L 366.000 83.203 362.944 78.226 C 359.699 72.941,359.500 72.648,359.500 73.161 M42.457 75.599 C 45.531 79.778,44.083 84.773,38.202 90.280 C 36.716 91.671,35.500 92.639,35.500 92.430 C 35.500 92.221,36.528 91.195,37.784 90.150 C 43.243 85.608,45.087 79.343,42.000 75.826 C 40.611 74.244,40.197 73.500,40.707 73.500 C 40.820 73.500,41.608 74.444,42.457 75.599 M341.575 75.125 C 341.643 76.596,341.669 76.622,341.855 75.403 C 342.029 74.267,342.350 74.026,343.905 73.862 L 345.750 73.668 343.625 73.584 C 341.530 73.501,341.501 73.523,341.575 75.125 M141.610 82.071 C 141.766 89.414,142.112 90.178,144.849 89.222 C 146.063 88.797,146.271 88.433,146.407 86.491 C 146.664 82.800,147.500 82.908,147.500 86.632 C 147.500 90.614,146.948 91.124,143.212 90.590 L 140.750 90.239 140.612 82.869 C 140.524 78.209,140.657 75.500,140.972 75.500 C 141.272 75.500,141.527 78.127,141.610 82.071 M185.449 83.622 C 184.719 85.387,183.829 85.588,178.000 85.310 C 175.387 85.186,172.631 85.065,171.875 85.042 C 170.847 85.011,170.500 84.747,170.500 84.000 C 170.500 82.972,171.223 82.648,171.721 83.453 C 172.076 84.027,181.048 84.722,182.711 84.304 C 184.057 83.967,184.941 81.779,185.056 78.500 C 185.105 77.080,185.202 77.266,185.571 79.491 C 185.885 81.387,185.848 82.661,185.449 83.622 M229.900 78.100 C 230.583 78.783,230.644 82.251,230.000 83.750 C 229.676 84.503,229.562 84.167,229.535 82.387 C 229.500 80.014,227.830 77.928,226.583 78.699 C 226.329 78.856,224.068 79.021,221.560 79.067 C 215.917 79.169,215.909 79.178,215.909 85.241 C 215.909 90.122,215.426 91.500,213.714 91.500 C 212.800 91.500,212.810 91.118,213.750 90.179 C 214.509 89.419,214.588 88.733,214.692 82.000 L 214.750 78.250 216.500 77.941 C 219.826 77.353,229.265 77.465,229.900 78.100 M268.186 79.438 C 269.847 81.048,272.750 85.827,273.690 88.499 C 273.932 89.187,274.474 90.144,274.893 90.625 C 275.588 91.423,275.562 91.500,274.601 91.500 C 273.843 91.500,273.280 90.903,272.598 89.375 C 271.405 86.703,267.436 80.895,266.616 80.622 C 265.478 80.243,265.985 81.771,268.242 85.523 C 269.892 88.267,270.486 89.778,270.492 91.250 L 270.500 93.250 274.746 93.074 C 279.943 92.858,280.837 93.701,277.962 96.104 C 275.456 98.199,268.666 98.073,268.884 95.936 C 268.981 94.992,268.748 94.551,268.059 94.371 C 267.532 94.233,266.636 93.137,266.069 91.935 C 265.502 90.733,264.467 88.741,263.769 87.508 C 261.776 83.986,262.332 80.000,264.815 80.000 C 265.224 80.000,265.420 79.775,265.250 79.500 C 264.166 77.746,260.500 79.367,260.500 81.600 C 260.500 83.768,259.665 83.251,259.348 80.887 C 258.966 78.039,259.433 77.655,263.216 77.706 C 266.179 77.746,266.588 77.889,268.186 79.438 M8.042 79.542 C 8.615 80.115,8.990 80.676,8.877 80.790 C 8.763 80.903,8.143 80.434,7.498 79.748 C 6.086 78.244,6.563 78.063,8.042 79.542 M222.375 80.315 C 223.950 80.737,223.775 82.108,221.977 83.438 C 219.944 84.941,218.301 84.691,218.089 82.845 C 217.809 80.407,219.342 79.502,222.375 80.315 M374.400 86.516 C 374.400 93.050,372.180 96.940,369.625 94.881 C 368.687 94.125,368.798 84.059,369.758 82.790 C 373.001 78.504,374.400 79.626,374.400 86.516 M226.697 82.791 C 228.398 87.224,226.274 95.913,223.613 95.403 C 222.010 95.096,222.091 84.863,223.710 83.244 C 225.137 81.818,226.258 81.648,226.697 82.791 M11.254 84.518 C 11.640 86.276,13.324 88.500,14.269 88.500 C 16.847 88.500,15.842 92.054,12.801 93.689 C 10.467 94.944,10.028 94.684,7.545 90.575 C 5.102 86.532,5.143 85.619,7.845 83.782 C 9.935 82.362,10.823 82.554,11.254 84.518 M236.500 86.650 C 236.500 90.912,236.099 91.500,233.191 91.500 C 229.741 91.500,229.489 91.260,229.584 88.072 C 229.647 85.946,229.716 85.711,229.864 87.117 C 230.423 92.453,235.500 91.414,235.500 85.964 C 235.500 84.321,235.723 83.000,236.000 83.000 C 236.288 83.000,236.500 84.550,236.500 86.650 M304.713 86.500 C 305.086 90.108,304.364 91.939,302.805 91.340 C 302.055 91.053,302.043 90.896,302.692 89.884 C 303.092 89.260,303.577 87.446,303.770 85.852 C 304.198 82.315,304.287 82.376,304.713 86.500 M210.220 89.625 C 210.433 90.106,210.808 90.500,211.053 90.500 C 211.299 90.500,211.500 90.725,211.500 91.000 C 211.500 91.854,209.558 91.548,209.116 90.625 C 208.886 90.144,208.810 88.287,208.948 86.500 L 209.198 83.250 209.515 86.000 C 209.690 87.513,210.007 89.144,210.220 89.625 M3.018 84.967 C 2.070 86.737,4.712 93.500,6.351 93.500 C 6.639 93.500,5.698 91.918,4.286 90.028 C 2.921 88.200,2.670 86.550,3.518 84.967 C 3.802 84.435,3.923 84.000,3.785 84.000 C 3.648 84.000,3.302 84.435,3.018 84.967 M85.000 89.126 C 80.311 94.088,75.419 97.997,73.799 98.075 C 72.272 98.149,72.270 98.153,73.636 98.359 C 75.550 98.648,88.750 87.704,87.473 86.887 C 87.351 86.809,86.237 87.816,85.000 89.126 M260.158 90.430 C 259.822 90.960,258.864 91.280,257.445 91.334 C 254.236 91.458,253.500 91.135,253.500 89.605 L 253.500 88.277 254.278 89.389 C 255.865 91.654,259.402 90.229,259.551 87.264 C 259.585 86.585,259.779 86.804,260.139 87.930 C 260.511 89.094,260.517 89.861,260.158 90.430 M299.722 91.045 C 299.266 91.783,298.000 90.919,298.000 89.869 C 298.000 88.881,298.034 88.876,298.988 89.739 C 299.532 90.231,299.862 90.819,299.722 91.045 M31.438 91.313 C 33.462 91.717,33.416 92.632,31.288 94.255 C 29.619 95.528,29.391 95.560,22.205 95.547 C 14.283 95.532,13.199 95.224,14.787 93.444 C 16.765 91.225,25.445 90.114,31.438 91.313 M77.709 91.803 C 78.964 92.285,78.639 93.275,76.754 94.713 C 74.742 96.247,61.289 96.987,59.938 95.637 C 57.277 92.980,72.319 89.735,77.709 91.803 M121.852 92.837 C 122.074 93.413,121.642 94.117,120.469 95.097 L 118.764 96.520 108.763 96.385 C 97.664 96.235,96.586 95.851,99.825 93.201 C 101.736 91.639,121.269 91.316,121.852 92.837 M145.750 93.230 C 145.750 94.953,142.750 96.500,139.410 96.500 C 135.674 96.500,135.062 95.533,137.449 93.400 C 139.526 91.544,145.750 91.417,145.750 93.230 M185.000 93.327 C 185.664 93.972,185.548 94.228,184.000 95.556 L 182.250 97.056 171.349 96.853 C 158.674 96.616,157.037 95.961,161.895 93.069 C 164.205 91.694,183.540 91.910,185.000 93.327 M258.209 92.803 C 259.380 93.253,259.173 94.299,257.630 95.730 C 255.912 97.323,249.224 97.665,248.657 96.188 C 248.344 95.371,248.564 95.168,251.703 93.375 C 253.211 92.513,256.663 92.210,258.209 92.803 M381.849 93.328 C 382.526 95.092,379.367 97.000,375.772 97.000 C 372.067 97.000,371.419 96.438,373.073 94.658 C 375.164 92.407,381.148 91.500,381.849 93.328 M213.992 93.625 C 213.967 95.678,210.875 97.500,207.417 97.500 C 203.686 97.500,203.061 96.534,205.424 94.422 C 207.191 92.843,214.010 92.209,213.992 93.625 M234.722 93.455 C 235.822 95.235,231.485 97.761,228.179 97.266 C 225.441 96.855,225.206 95.469,227.625 93.995 C 229.329 92.956,234.185 92.587,234.722 93.455 M60.603 98.870 C 62.447 98.966,65.597 98.967,67.603 98.872 C 69.609 98.777,68.100 98.698,64.250 98.697 C 60.400 98.696,58.759 98.774,60.603 98.870 M211.326 99.117 C 211.009 99.319,208.387 99.485,205.500 99.485 C 202.613 99.485,199.990 99.319,199.672 99.117 C 199.354 98.915,201.975 98.750,205.497 98.750 C 209.020 98.750,211.642 98.915,211.326 99.117 M11.015 107.370 C 6.820 107.877,1.464 113.684,1.574 117.607 L 1.647 120.250 1.990 117.500 C 2.423 114.022,2.769 113.266,4.417 112.190 C 5.659 111.380,5.639 111.447,4.125 113.178 L 2.500 115.035 2.500 132.495 L 2.500 149.955 4.125 150.217 C 7.819 150.815,8.117 150.932,5.583 150.789 C 3.992 150.699,3.185 150.809,3.583 151.062 C 3.950 151.294,10.212 151.441,17.500 151.387 C 29.675 151.298,30.121 151.265,23.000 150.989 L 15.250 150.688 23.428 150.641 C 29.447 150.606,31.757 150.423,32.178 149.946 C 32.541 149.535,32.385 149.560,31.750 150.015 C 30.760 150.725,30.760 150.721,31.702 149.616 C 32.713 148.432,33.810 148.071,33.194 149.125 C 32.993 149.469,33.308 149.329,33.894 148.815 C 34.481 148.301,34.931 147.739,34.895 147.565 C 34.859 147.392,36.556 145.523,38.665 143.411 C 42.397 139.676,43.890 138.651,41.125 141.723 L 39.750 143.250 41.300 141.853 L 42.850 140.456 42.955 128.090 C 43.014 121.211,42.850 115.170,42.586 114.476 C 41.974 112.868,38.540 108.750,37.810 108.750 C 37.502 108.750,37.250 108.412,37.250 108.000 C 37.250 107.072,35.214 106.733,33.800 107.426 C 33.208 107.716,27.688 108.021,21.145 108.125 C 11.115 108.283,9.414 108.423,8.606 109.154 C 8.092 109.619,7.490 110.000,7.268 110.000 C 5.956 110.000,9.710 107.993,11.079 107.963 C 11.998 107.943,13.762 107.746,15.000 107.526 L 17.250 107.125 15.000 107.143 C 13.762 107.152,11.969 107.254,11.015 107.370 M22.148 107.372 C 24.292 107.466,27.667 107.465,29.648 107.371 C 31.629 107.276,29.875 107.199,25.750 107.200 C 21.625 107.201,20.004 107.278,22.148 107.372 M99.438 107.469 C 96.103 108.119,89.891 114.469,90.038 117.076 C 90.059 117.447,90.340 117.067,90.663 116.232 C 91.398 114.332,92.309 113.155,94.515 111.256 C 95.706 110.231,95.515 110.544,93.907 112.256 C 90.059 116.353,90.258 117.189,98.121 129.967 C 101.549 135.538,101.494 135.351,101.497 141.333 C 101.499 145.314,101.321 147.000,100.875 147.208 C 100.375 147.442,100.375 147.558,100.875 147.792 C 101.219 147.952,101.500 148.627,101.500 149.292 L 101.500 150.500 107.925 150.500 C 115.069 150.500,115.777 150.225,119.968 145.818 L 121.685 144.011 121.876 138.131 C 122.079 131.871,122.528 130.464,125.992 125.250 C 128.670 121.220,131.702 115.198,132.034 113.250 C 132.369 111.283,132.376 111.278,132.437 112.923 C 132.480 114.050,131.753 115.967,130.210 118.798 C 128.950 121.109,128.032 123.000,128.169 123.000 C 128.307 123.000,129.450 121.109,130.710 118.798 C 133.480 113.715,133.960 109.229,131.889 107.778 C 130.703 106.948,122.773 106.752,119.750 107.479 C 118.925 107.677,120.963 107.732,124.279 107.601 C 130.908 107.338,132.548 107.749,132.432 109.643 L 132.364 110.750 132.147 109.626 C 131.657 107.082,119.161 107.368,117.125 109.970 C 116.039 111.357,114.510 112.197,115.250 111.000 C 115.753 110.186,115.179 110.430,114.436 111.346 C 113.845 112.074,113.854 112.139,114.500 111.809 C 114.912 111.598,114.821 111.775,114.296 112.201 C 113.339 112.978,111.686 111.912,112.302 110.915 C 112.420 110.725,112.253 110.406,111.931 110.207 C 111.531 109.960,111.479 110.067,111.769 110.548 C 112.129 111.146,112.066 111.148,111.346 110.564 C 110.447 109.834,110.155 108.728,111.000 109.250 C 111.814 109.753,111.570 109.179,110.654 108.436 C 109.932 107.850,109.871 107.854,110.236 108.460 C 110.576 109.025,110.468 109.076,109.707 108.710 C 107.999 107.889,98.595 108.259,97.569 109.187 C 97.075 109.634,96.464 109.993,96.211 109.983 C 95.002 109.940,98.310 107.992,99.680 107.941 C 100.544 107.908,101.925 107.710,102.750 107.500 L 104.250 107.118 102.750 107.117 C 101.925 107.116,100.434 107.274,99.438 107.469 M106.042 107.178 C 106.156 107.276,107.037 107.501,108.000 107.677 C 109.231 107.903,109.528 107.853,109.000 107.507 C 108.322 107.063,105.546 106.754,106.042 107.178 M63.875 107.871 C 65.869 107.966,69.131 107.966,71.125 107.871 C 73.119 107.776,71.487 107.699,67.500 107.699 C 63.513 107.699,61.881 107.776,63.875 107.871 M76.864 107.861 C 77.751 107.971,79.326 107.973,80.364 107.865 C 81.401 107.757,80.675 107.666,78.750 107.664 C 76.825 107.662,75.976 107.750,76.864 107.861 M57.330 109.375 C 56.492 109.994,55.983 110.500,56.199 110.500 C 56.415 110.500,57.164 110.050,57.864 109.500 C 58.563 108.950,59.360 108.500,59.635 108.500 C 60.292 108.500,58.315 109.986,55.500 111.608 C 50.611 114.425,47.009 118.479,46.923 121.261 C 46.657 129.910,47.182 149.789,47.686 150.117 C 48.867 150.886,59.708 150.549,60.912 149.705 C 61.536 149.268,62.385 149.041,62.799 149.200 C 63.250 149.373,63.422 149.278,63.227 148.963 C 62.790 148.256,64.520 146.401,65.327 146.711 C 65.680 146.846,66.122 146.706,66.311 146.401 C 66.514 146.072,66.428 145.986,66.098 146.189 C 65.787 146.382,65.862 145.920,66.268 145.141 C 66.667 144.376,66.995 142.440,66.997 140.838 C 67.000 138.386,67.132 137.952,67.836 138.088 C 68.572 138.230,68.658 138.985,68.551 144.331 L 68.429 150.413 71.673 150.760 C 76.871 151.317,80.658 150.681,82.336 148.969 C 83.114 148.176,84.144 147.522,84.625 147.514 C 85.106 147.506,85.500 147.236,85.500 146.914 C 85.500 146.592,85.894 145.894,86.375 145.362 C 87.149 144.506,87.270 142.917,87.429 131.426 C 87.668 114.277,87.550 113.420,84.577 110.584 L 82.250 108.364 84.368 109.969 C 87.056 112.004,87.113 112.105,87.817 116.000 C 88.244 118.366,88.416 118.774,88.449 117.500 C 88.530 114.364,87.583 112.140,85.357 110.239 L 83.250 108.440 71.052 108.345 C 59.114 108.252,58.822 108.274,57.330 109.375 M38.068 111.347 C 38.788 112.118,39.617 113.216,39.908 113.785 C 40.574 115.084,40.574 136.733,39.908 138.500 C 39.034 140.819,36.975 142.501,35.031 142.485 C 33.457 142.471,33.366 142.405,34.250 141.917 C 38.791 139.405,39.371 137.574,39.238 126.161 C 39.068 111.500,39.068 111.500,24.678 111.500 L 14.578 111.500 13.975 113.325 C 13.609 114.434,13.493 116.296,13.679 118.075 C 13.852 119.730,13.786 121.000,13.528 121.000 C 12.972 121.000,12.585 112.072,13.092 110.951 C 13.406 110.258,14.983 110.139,25.106 110.048 L 36.758 109.943 38.068 111.347 M41.369 111.614 C 43.484 114.107,43.598 115.017,43.411 127.881 C 43.322 133.981,43.403 138.584,43.590 138.111 C 43.777 137.637,43.946 132.349,43.965 126.359 C 44.003 114.482,43.785 113.267,41.208 111.000 C 39.860 109.814,39.868 109.846,41.369 111.614 M83.257 111.610 C 84.556 113.121,84.784 116.111,84.764 131.347 C 84.749 142.504,84.791 142.356,81.480 142.767 C 78.235 143.169,78.040 142.876,77.971 137.480 C 77.882 130.596,77.799 130.512,71.121 130.559 C 64.399 130.606,64.500 130.519,64.500 136.270 C 64.500 141.639,64.275 142.500,62.869 142.500 C 61.888 142.500,61.882 142.460,62.721 141.532 C 63.462 140.713,63.573 139.767,63.437 135.407 C 63.226 128.628,62.727 129.033,70.879 129.358 C 79.370 129.697,79.000 129.407,79.000 135.711 C 79.000 141.223,79.314 142.000,81.539 142.000 C 83.895 142.000,83.971 141.538,83.828 128.156 C 83.646 111.216,84.371 112.153,71.119 111.722 L 62.146 111.430 60.323 113.149 C 58.582 114.791,58.500 115.017,58.500 118.184 C 58.500 121.041,57.593 123.150,57.451 120.625 C 57.403 119.779,57.418 114.939,57.473 113.587 C 57.488 113.222,58.119 112.322,58.875 111.587 L 60.250 110.250 71.210 110.299 L 82.170 110.347 83.257 111.610 M129.001 110.751 C 130.117 112.096,129.375 116.712,127.653 119.126 C 126.820 120.294,124.624 123.780,122.772 126.873 L 119.406 132.495 119.129 137.513 C 118.849 142.607,118.579 143.329,117.158 142.784 C 116.441 142.509,116.439 142.396,117.138 141.615 C 117.701 140.985,117.963 139.321,118.102 135.500 L 118.293 130.250 122.666 122.778 C 125.071 118.668,127.272 115.024,127.558 114.680 C 128.687 113.320,127.862 111.759,125.928 111.598 C 123.741 111.415,123.054 112.225,119.240 119.477 C 116.049 125.547,115.213 125.840,113.028 121.657 C 108.038 112.104,106.376 110.229,104.019 111.490 C 102.254 112.434,103.276 114.827,110.793 127.352 C 113.027 131.074,113.250 131.866,113.019 135.250 L 112.882 137.250 112.485 134.893 C 112.202 133.212,110.563 130.022,106.766 123.764 C 101.924 115.785,101.457 114.799,101.596 112.871 L 101.750 110.750 105.435 110.750 L 109.121 110.750 110.478 113.291 C 114.580 120.967,115.749 121.684,117.934 117.866 C 118.763 116.417,120.017 114.731,120.720 114.119 C 121.424 113.507,122.000 112.600,122.000 112.103 C 122.000 110.029,127.517 108.963,129.001 110.751 M51.009 114.023 C 48.810 115.960,46.771 117.993,46.479 118.540 C 46.186 119.086,47.140 118.331,48.598 116.860 C 50.057 115.389,52.263 113.361,53.500 112.353 C 54.737 111.345,55.583 110.515,55.378 110.510 C 55.174 110.504,53.207 112.085,51.009 114.023 M10.191 111.405 C 10.609 112.080,10.721 142.667,10.310 143.883 C 9.700 145.689,6.191 147.291,5.534 146.063 C 5.115 145.281,4.888 133.294,4.984 117.075 C 5.005 113.561,8.901 109.318,10.191 111.405 M98.982 111.967 C 99.267 112.499,99.500 113.477,99.500 114.140 C 99.500 114.803,100.389 116.721,101.476 118.402 C 107.226 127.298,108.262 130.140,106.375 131.838 C 103.552 134.380,102.933 133.956,98.486 126.442 C 92.776 116.792,92.506 115.145,96.161 112.263 C 98.078 110.752,98.319 110.727,98.982 111.967 M118.500 112.673 C 118.500 115.089,115.955 117.883,114.803 116.732 C 113.616 115.545,113.813 114.720,115.625 113.292 C 117.421 111.876,118.500 111.644,118.500 112.673 M55.041 117.125 C 55.063 118.294,55.108 124.700,55.141 131.361 L 55.200 143.473 53.975 144.782 C 49.822 149.222,49.529 148.386,49.566 132.213 L 49.598 118.519 51.409 116.760 C 53.938 114.304,54.989 114.410,55.041 117.125 M33.951 117.575 C 34.650 119.579,34.688 125.175,34.000 124.750 C 33.725 124.580,33.500 123.772,33.500 122.954 C 33.500 118.249,31.941 117.017,25.975 117.008 C 19.696 116.998,20.000 116.513,20.000 126.539 C 20.000 136.669,19.644 136.157,26.528 135.922 C 32.945 135.704,33.514 135.210,33.356 129.993 C 33.289 127.779,33.475 126.325,33.876 125.924 C 34.763 125.037,34.762 134.952,33.875 136.160 C 33.053 137.279,19.616 137.948,19.270 136.887 C 18.921 135.814,18.572 119.443,18.860 117.667 L 19.131 116.000 26.267 116.000 L 33.402 116.000 33.951 117.575 M74.576 116.321 C 78.418 116.684,79.000 117.355,79.000 121.424 C 79.000 124.897,78.769 125.000,70.961 125.000 C 63.066 125.000,63.185 125.067,63.246 120.678 C 63.314 115.806,64.459 115.366,74.576 116.321 M65.278 118.611 C 62.786 122.170,64.656 123.527,71.831 123.369 L 77.250 123.250 77.408 121.326 C 77.676 118.068,76.717 117.500,70.951 117.500 C 66.460 117.500,65.993 117.592,65.278 118.611 M90.590 118.250 C 90.945 119.321,93.531 124.000,93.767 124.000 C 93.904 124.000,93.460 122.931,92.778 121.625 C 91.544 119.258,90.275 117.300,90.590 118.250 M30.818 119.110 C 31.231 119.778,31.115 132.199,30.683 133.654 C 30.494 134.291,30.020 134.513,29.082 134.404 C 27.783 134.254,27.743 134.145,27.454 130.000 C 27.053 124.254,26.769 123.500,25.002 123.500 C 22.529 123.500,21.000 120.700,22.600 119.100 C 23.413 118.287,30.314 118.295,30.818 119.110 M68.500 121.387 C 68.500 122.722,67.249 121.661,67.114 120.211 C 66.984 118.817,67.012 118.795,67.739 119.721 C 68.157 120.254,68.500 121.004,68.500 121.387 M75.278 120.087 C 75.627 121.188,74.510 122.500,73.222 122.500 C 72.143 122.500,70.037 120.486,70.326 119.732 C 70.813 118.463,74.854 118.753,75.278 120.087 M1.677 127.250 C 1.676 129.725,1.761 130.801,1.865 129.640 C 1.970 128.480,1.971 126.455,1.868 125.140 C 1.765 123.826,1.679 124.775,1.677 127.250 M126.158 125.901 C 125.299 127.193,124.345 128.813,124.038 129.500 C 123.560 130.570,123.571 130.614,124.115 129.802 C 126.764 125.850,128.004 123.838,127.873 123.706 C 127.789 123.622,127.017 124.610,126.158 125.901 M25.000 130.034 C 25.000 133.409,24.101 135.377,23.214 133.942 C 22.444 132.696,22.318 125.922,23.056 125.457 C 24.252 124.702,25.000 126.462,25.000 130.034 M88.116 127.500 C 88.116 128.463,88.219 128.856,88.345 128.375 C 88.470 127.894,88.470 127.106,88.345 126.625 C 88.219 126.144,88.116 126.537,88.116 127.500 M95.500 127.191 C 95.500 127.677,98.925 133.000,99.238 133.000 C 99.375 133.000,98.670 131.706,97.671 130.125 C 95.582 126.820,95.500 126.709,95.500 127.191 M46.116 131.000 C 46.116 131.963,46.219 132.356,46.345 131.875 C 46.470 131.394,46.470 130.606,46.345 130.125 C 46.219 129.644,46.116 130.037,46.116 131.000 M59.020 141.220 C 59.770 141.970,59.584 142.590,58.663 142.412 C 57.780 142.241,57.288 135.338,57.956 132.500 C 58.118 131.813,58.315 133.385,58.395 135.995 C 58.475 138.605,58.757 140.957,59.020 141.220 M70.438 131.813 C 72.960 132.317,70.870 136.500,68.095 136.500 C 66.655 136.500,66.077 133.494,67.286 132.286 C 68.174 131.397,68.282 131.381,70.438 131.813 M109.750 138.190 L 109.750 144.112 108.019 145.556 C 104.658 148.360,103.984 147.560,104.035 140.834 C 104.077 135.393,104.228 134.925,106.491 133.256 C 109.479 131.053,109.750 131.463,109.750 138.190 M46.177 137.750 C 46.176 140.225,46.261 141.301,46.365 140.140 C 46.470 138.980,46.471 136.955,46.368 135.640 C 46.265 134.326,46.179 135.275,46.177 137.750 M75.391 139.078 C 75.548 144.915,74.637 147.233,72.317 146.902 C 70.407 146.630,70.711 136.374,72.680 134.682 C 74.919 132.758,75.235 133.270,75.391 139.078 M87.963 136.875 C 87.912 141.664,87.284 145.515,86.474 146.016 C 86.092 146.252,85.923 146.590,86.100 146.766 C 86.276 146.943,86.803 146.503,87.270 145.789 C 88.120 144.492,89.060 133.500,88.321 133.500 C 88.144 133.500,87.984 135.019,87.963 136.875 M122.626 136.750 C 122.632 137.850,122.734 138.241,122.854 137.619 C 122.973 136.997,122.969 136.097,122.844 135.619 C 122.718 135.141,122.621 135.650,122.626 136.750 M100.687 141.250 C 100.688 144.275,100.771 145.448,100.870 143.857 C 100.970 142.265,100.969 139.790,100.868 138.357 C 100.767 136.923,100.686 138.225,100.687 141.250 M1.696 143.500 C 1.696 147.213,1.775 148.731,1.871 146.875 C 1.967 145.019,1.967 141.981,1.871 140.125 C 1.775 138.269,1.696 139.787,1.696 143.500 M122.318 141.816 C 121.923 144.702,120.265 146.958,116.850 149.258 L 114.263 151.000 107.757 151.063 C 102.837 151.110,101.799 151.222,103.500 151.522 C 110.620 152.778,116.853 150.917,120.742 146.374 C 122.306 144.547,123.620 140.453,122.880 139.713 C 122.748 139.581,122.495 140.527,122.318 141.816 M15.066 142.051 C 15.570 142.371,15.454 142.487,14.625 142.492 C 13.787 142.498,13.502 142.213,13.508 141.375 C 13.513 140.546,13.629 140.430,13.949 140.934 C 14.187 141.310,14.690 141.813,15.066 142.051 M67.402 142.625 C 67.277 143.794,67.329 145.988,67.517 147.500 C 67.818 149.917,67.868 149.660,67.930 145.375 C 68.004 140.231,67.783 139.076,67.402 142.625 M114.055 142.645 C 113.379 143.321,112.500 142.614,112.500 141.393 C 112.500 140.373,112.527 140.369,113.512 141.261 C 114.141 141.830,114.346 142.354,114.055 142.645 M26.884 142.357 C 26.133 142.471,24.783 142.474,23.884 142.362 C 22.985 142.251,23.600 142.158,25.250 142.155 C 26.900 142.152,27.635 142.243,26.884 142.357 M38.000 144.750 C 37.354 145.438,37.034 145.993,37.288 145.984 C 37.715 145.970,39.776 143.500,39.360 143.500 C 39.258 143.500,38.646 144.063,38.000 144.750 M33.392 144.415 C 34.349 145.034,33.623 146.342,31.644 147.566 C 29.750 148.736,10.643 149.581,9.071 148.564 C 7.434 147.504,9.530 145.192,12.750 144.507 C 15.036 144.021,32.661 143.942,33.392 144.415 M46.160 147.000 C 46.160 148.787,46.251 149.519,46.362 148.625 C 46.473 147.731,46.473 146.269,46.362 145.375 C 46.251 144.481,46.160 145.213,46.160 147.000 M61.438 144.313 C 63.464 144.718,63.411 145.536,61.233 147.448 C 59.336 149.114,56.449 149.526,53.783 148.512 C 49.782 146.991,56.473 143.320,61.438 144.313 M117.397 144.786 C 119.670 145.487,114.635 149.000,111.357 149.000 C 107.115 149.000,106.392 147.963,109.162 145.851 C 111.288 144.229,114.319 143.837,117.397 144.786 M83.300 145.080 C 84.085 146.352,80.213 149.000,77.569 149.000 C 73.565 149.000,73.163 147.197,76.750 145.324 C 78.512 144.403,82.783 144.244,83.300 145.080 M82.257 149.554 C 81.437 150.349,80.199 151.016,79.507 151.035 C 78.816 151.054,77.800 151.279,77.250 151.533 C 76.555 151.855,76.933 151.902,78.487 151.685 C 80.538 151.400,86.259 147.914,84.447 148.054 C 84.064 148.084,83.078 148.759,82.257 149.554 M60.750 150.291 C 59.955 150.894,58.505 151.019,53.671 150.900 C 50.328 150.817,47.698 150.919,47.826 151.125 C 48.412 152.068,60.054 151.530,61.364 150.500 C 62.063 149.950,62.436 149.507,62.192 149.516 C 61.949 149.525,61.300 149.873,60.750 150.291 M12.632 150.852 C 12.017 150.971,10.892 150.974,10.132 150.859 C 9.372 150.744,9.875 150.647,11.250 150.643 C 12.625 150.639,13.247 150.733,12.632 150.852 M68.500 151.195 C 68.500 151.303,69.272 151.481,70.215 151.591 C 71.158 151.701,71.820 151.613,71.685 151.396 C 71.443 151.004,68.500 150.819,68.500 151.195 " stroke="none" fill="#000000" fill-rule="evenodd"></path></g></svg>